<svg width="343" height="314" viewBox="0 0 343 314" fill="none" xmlns="http://www.w3.org/2000/svg">
<g clip-path="url(#clip0_26_7)">
<path d="M284.465 120.296C253.897 108.181 229.527 103.279 210.197 103.954C195.774 104.454 189.336 106.628 183.765 120.512L125.357 266.055C150.911 256.66 169.463 258.602 235.151 284.964L298.908 126.092L284.465 120.296ZM96.7075 44.9467C127.17 57.3236 148.168 70.6291 161.669 84.4787C171.745 94.8106 174.893 100.832 169.322 114.716L110.914 260.259C98.9439 235.805 84.1958 224.384 18.5077 198.022L82.2646 39.1506L96.7075 44.9467Z" fill="#9747FF"/>
</g>
<g clip-path="url(#clip1_26_7)">
<path d="M311.877 105.707C281.309 93.5923 256.938 88.6909 237.609 89.3653C223.186 89.8656 216.748 92.0402 211.177 105.923L152.768 251.467C178.323 242.071 196.875 244.014 262.563 270.375L326.32 111.504L311.877 105.707ZM124.119 30.3585C154.582 42.7354 175.58 56.0408 189.081 69.8905C199.157 80.2224 202.305 86.2441 196.734 100.127L138.326 245.671C126.356 221.216 111.607 209.795 45.9194 183.434L109.676 24.5624L124.119 30.3585Z" fill="#EDEDED"/>
</g>
<g clip-path="url(#clip2_26_7)">
<path d="M306.133 91.6087C279.642 81.1094 258.522 76.8616 241.77 77.4461C229.271 77.8797 223.692 79.7642 218.864 91.7958L168.246 217.927C190.392 209.785 206.469 211.468 263.396 234.314L318.649 96.6317L306.133 91.6087ZM143.418 26.3094C169.817 37.0355 188.015 48.5663 199.715 60.5688C208.447 69.5226 211.176 74.7412 206.347 86.7728L155.729 212.904C145.356 191.711 132.575 181.814 75.6479 158.968L130.901 21.2864L143.418 26.3094Z" fill="#F7F7F7"/>
</g>
<defs>
<clipPath id="clip0_26_7">
<rect width="241.046" height="232.679" fill="white" transform="matrix(0.934114 0.356975 -0.38835 0.921512 90.361 13.5359)"/>
</clipPath>
<clipPath id="clip1_26_7">
<rect width="241.046" height="232.679" fill="white" transform="matrix(0.934114 0.356975 -0.38835 0.921512 117.07 0)"/>
</clipPath>
<clipPath id="clip2_26_7">
<rect width="208.897" height="201.645" fill="white" transform="matrix(0.934114 0.356975 -0.38835 0.921512 137.309 0)"/>
</clipPath>
</defs>
</svg>
