<svg width="67" height="67" viewBox="0 0 67 67" fill="none" xmlns="http://www.w3.org/2000/svg">
<circle cx="33.5" cy="33.5" r="33.5" fill="#D8DEEB"/>
<path d="M50.0946 47.7812C47.2552 42.8724 42.704 39.5209 37.4308 38.3126C39.9365 37.286 42.008 35.4212 43.2914 33.0368C44.5748 30.6524 44.9904 27.8964 44.4672 25.2395C43.9441 22.5827 42.5146 20.19 40.4231 18.4702C38.3316 16.7503 35.7077 15.8101 32.9999 15.8101C30.2921 15.8101 27.6683 16.7503 25.5767 18.4702C23.4852 20.19 22.0558 22.5827 21.5326 25.2395C21.0095 27.8964 21.4251 30.6524 22.7084 33.0368C23.9918 35.4212 26.0633 37.286 28.569 38.3126C23.3027 39.5157 18.7446 42.8724 15.9052 47.7812C15.823 47.9383 15.8047 48.1211 15.8541 48.2914C15.9035 48.4617 16.0168 48.6063 16.1703 48.6951C16.3239 48.7838 16.5057 48.8098 16.678 48.7676C16.8502 48.7254 16.9995 48.6183 17.0946 48.4687C20.453 42.6576 26.4033 39.1874 32.9999 39.1874C39.5965 39.1874 45.5468 42.6576 48.9052 48.4687C48.9655 48.5731 49.0522 48.6598 49.1566 48.7201C49.2609 48.7805 49.3793 48.8123 49.4999 48.8124C49.6207 48.8128 49.7394 48.7807 49.8437 48.7196C50.0013 48.6283 50.1162 48.4782 50.1632 48.3023C50.2103 48.1263 50.1856 47.9389 50.0946 47.7812ZM22.6874 27.4999C22.6874 25.4603 23.2922 23.4665 24.4254 21.7706C25.5585 20.0747 27.1691 18.7529 29.0535 17.9724C30.9379 17.1919 33.0113 16.9877 35.0118 17.3856C37.0122 17.7835 38.8497 18.7656 40.2919 20.2079C41.7342 21.6501 42.7163 23.4876 43.1143 25.488C43.5122 27.4885 43.3079 29.562 42.5274 31.4463C41.7469 33.3307 40.4251 34.9413 38.7292 36.0744C37.0333 37.2076 35.0395 37.8124 32.9999 37.8124C30.2658 37.8092 27.6447 36.7217 25.7114 34.7884C23.7781 32.8552 22.6906 30.234 22.6874 27.4999Z" fill="white"/>
</svg>
