<svg width="32" height="32" viewBox="0 0 28 28" fill="none" xmlns="http://www.w3.org/2000/svg">
<path d="M11.9001 4.2002C13.3636 4.19995 14.7968 4.61676 16.0319 5.4018C17.267 6.18684 18.2528 7.3076 18.8738 8.63277C19.4948 9.95794 19.7253 11.4326 19.5383 12.8841C19.3513 14.3356 18.7545 15.7037 17.8179 16.8282L23.5957 22.6046C23.7197 22.7281 23.793 22.8935 23.8011 23.0683C23.8092 23.2431 23.7515 23.4146 23.6394 23.549C23.5273 23.6834 23.369 23.7709 23.1955 23.7944C23.0221 23.8178 22.8462 23.7754 22.7025 23.6756L22.6045 23.5958L16.8281 17.818C15.8778 18.6091 14.7509 19.1597 13.5428 19.4233C12.3347 19.6868 11.0809 19.6555 9.88739 19.3321C8.69392 19.0086 7.59592 18.4025 6.68623 17.5649C5.77654 16.7274 5.08194 15.6831 4.66117 14.5204C4.24041 13.3576 4.10585 12.1107 4.26888 10.885C4.43192 9.65923 4.88775 8.49079 5.59782 7.47848C6.30789 6.46616 7.25132 5.63974 8.3483 5.06912C9.44529 4.49849 10.6636 4.20045 11.9001 4.2002ZM11.9001 5.6002C10.2292 5.6002 8.62679 6.26394 7.44531 7.44542C6.26383 8.6269 5.60008 10.2293 5.60008 11.9002C5.60008 13.5711 6.26383 15.1735 7.44531 16.355C8.62679 17.5364 10.2292 18.2002 11.9001 18.2002C13.5709 18.2002 15.1734 17.5364 16.3549 16.355C17.5363 15.1735 18.2001 13.5711 18.2001 11.9002C18.2001 10.2293 17.5363 8.6269 16.3549 7.44542C15.1734 6.26394 13.5709 5.6002 11.9001 5.6002Z" fill="#60669C"/>
</svg>
