<svg width="30" height="34" viewBox="0 0 30 34" fill="none" xmlns="http://www.w3.org/2000/svg">
<g clip-path="url(#clip0_61_186)">
<path d="M27.3308 29.1816C27.7802 28.635 28.0791 27.9806 28.198 27.2831C28.3169 26.5856 28.2516 25.8692 28.0086 25.2046L27.5443 23.9211H30.3626V0.163086H-0.206055V23.9211H16.2324L18.0259 28.84C18.2676 29.5049 18.6786 30.0952 19.2182 30.5528C19.7578 31.0103 20.4074 31.3192 21.1029 31.4489L21.9455 33.9995L28.9989 34.0005L27.3313 29.1821L27.3308 29.1816ZM24.7664 16.345C24.0426 16.6093 23.4533 17.15 23.1279 17.8484C22.8025 18.5469 22.7676 19.3459 23.0308 20.0701L24.1178 23.0355H0.677945V1.04762H29.4781V23.0355H27.2155L24.7664 16.345Z" fill="#FF4773"/>
<path d="M26.8655 12.3378C20.3561 18.8456 9.80067 18.8456 3.29126 12.3378L12.8564 2.76782C13.1478 3.05969 13.4938 3.29123 13.8748 3.44922C14.2557 3.6072 14.6641 3.68852 15.0765 3.68852C15.4889 3.68852 15.8973 3.6072 16.2782 3.44922C16.6592 3.29123 17.0052 3.05969 17.2966 2.76782L26.8655 12.3378ZM20.0793 10.3939C20.5796 10.0502 20.9234 9.52234 21.0355 8.92578C21.1476 8.32922 21.0189 7.71255 20.6775 7.21067C19.9608 6.16942 18.5355 5.90113 17.4953 6.61513C17.0069 6.96305 16.6744 7.4887 16.5694 8.07912C16.4644 8.66953 16.5952 9.27758 16.9337 9.77257C17.2722 10.2676 17.7914 10.61 18.3797 10.7263C18.968 10.8426 19.5784 10.7234 20.0798 10.3944L20.0793 10.3939ZM17.61 11.7396C17.5633 11.6073 17.5038 11.4809 17.3991 11.3719C17.3991 11.3719 15.5414 9.41164 15.0824 8.92926C15.1126 8.34648 15.1859 6.83667 15.1859 6.83667C15.1971 6.57512 15.1041 6.31982 14.9275 6.12659C14.7509 5.93335 14.505 5.81791 14.2435 5.80551C14.1142 5.79908 13.9848 5.81826 13.8629 5.86195C13.741 5.90565 13.6289 5.97299 13.5331 6.06011C13.4373 6.14723 13.3597 6.25243 13.3046 6.36964C13.2496 6.48686 13.2182 6.6138 13.2124 6.74317L13.0949 9.25598C13.0881 9.38873 13.1082 9.52149 13.1541 9.64623C13.2001 9.77096 13.2708 9.88508 13.3622 9.98167L14.2106 10.8784L11.6627 12.5604L11.7998 10.6362C11.7682 10.2802 11.5968 9.95123 11.3232 9.72133C11.0496 9.49142 10.696 9.3793 10.3399 9.40951C10.3399 9.40951 7.91738 9.57685 7.0387 9.6507C6.90621 9.6622 6.77729 9.69969 6.65929 9.76102C6.54129 9.82235 6.43653 9.90632 6.35098 10.0081C6.26544 10.11 6.2008 10.2276 6.16074 10.3544C6.12068 10.4813 6.10599 10.6147 6.11751 10.7472C6.14076 11.0145 6.26897 11.2618 6.47406 11.4348C6.67916 11.6078 6.94445 11.6926 7.21188 11.6705C7.82495 11.6163 9.25879 11.5674 9.84051 11.5196C9.84051 11.5196 9.33742 12.9848 9.44154 13.7084C9.50689 14.1823 9.64288 14.6599 9.93188 15.0838C10.1445 15.3942 10.4162 15.6597 10.7314 15.8652C11.0466 16.0706 11.3992 16.2119 11.7691 16.281C12.1389 16.3501 12.5188 16.3457 12.8869 16.268C13.2551 16.1903 13.6043 16.0408 13.9147 15.8281C14.3816 15.5099 16.7027 13.9225 17.1394 13.6229C17.4331 13.4198 17.6429 13.1166 17.7294 12.7701C17.816 12.4236 17.7733 12.0575 17.6095 11.7401L17.61 11.7396Z" fill="#FF4773"/>
</g>
<defs>
<clipPath id="clip0_61_186">
<rect width="30" height="34" fill="white"/>
</clipPath>
</defs>
</svg>
